<svg id="svg" xmlns="http://www.w3.org/2000/svg" xmlns:xlink="http://www.w3.org/1999/xlink" width="400" height="400" viewBox="0, 0, 400,400"><g id="svgg"><path id="path0" d="M235.156 1.141 C 216.345 5.178,198.755 17.418,187.958 33.984 C 186.277 36.563,184.831 38.771,184.743 38.893 C 184.655 39.015,181.461 37.542,177.643 35.620 C 139.230 16.283,95.710 32.066,79.145 71.343 C 69.229 94.855,68.831 128.125,78.466 128.125 C 83.652 128.125,84.375 126.173,84.375 112.182 C 84.375 86.614,91.121 68.602,105.851 54.847 C 124.680 37.262,153.404 34.702,175.484 48.641 L 178.663 50.647 175.899 58.780 C 172.736 68.083,173.050 70.878,177.467 72.707 C 182.096 74.625,184.592 72.401,187.454 63.810 C 212.206 -10.486,297.348 -2.407,313.275 75.748 C 319.024 103.961,315.226 137.155,303.225 163.585 C 299.665 171.425,300.074 174.837,304.772 176.475 C 317.716 180.987,332.325 121.546,327.418 84.335 C 319.971 27.859,279.732 -8.425,235.156 1.141 M171.343 87.814 L 169.161 89.691 169.190 103.634 C 169.268 142.374,182.705 179.133,205.333 202.509 L 212.677 210.096 209.909 213.867 C 179.307 255.555,116.574 222.568,91.423 151.563 C 88.131 142.268,86.402 139.844,83.065 139.844 C 74.174 139.844,75.530 150.022,87.742 174.952 C 106.722 213.700,135.711 238.680,168.965 244.944 C 171.122 245.350,171.131 245.377,170.668 250.215 C 169.776 259.535,175.345 266.040,183.715 265.454 L 188.134 265.145 188.100 272.221 C 188.027 287.569,193.133 293.376,211.882 299.270 C 231.212 305.346,232.606 311.601,219.227 332.215 C 213.425 341.154,211.084 346.052,209.324 352.934 C 204.483 371.864,211.712 400.000,221.416 400.000 C 227.695 400.000,229.028 395.480,225.067 387.632 C 216.654 370.967,218.341 355.877,230.659 337.612 C 246.633 313.925,242.441 295.448,219.531 288.567 C 200.108 282.733,198.153 280.032,201.678 263.907 C 202.449 260.380,202.638 260.185,206.514 258.915 C 218.143 255.103,220.935 244.944,212.821 235.963 L 209.947 232.782 214.212 228.305 C 216.558 225.843,219.464 222.334,220.671 220.508 C 222.928 217.090,224.034 216.615,226.570 217.973 C 228.004 218.740,228.003 218.861,226.519 223.173 C 223.234 232.721,226.483 240.845,234.271 242.555 L 236.548 243.055 235.379 247.504 C 231.266 263.160,237.108 273.266,254.682 280.894 C 274.032 289.293,275.004 295.790,259.707 314.453 C 248.019 328.713,244.278 338.135,244.195 353.516 C 244.085 374.018,251.107 387.266,259.112 381.659 C 261.874 379.724,261.919 377.212,259.318 370.173 C 252.933 352.899,255.828 340.058,270.309 321.411 C 287.965 298.677,286.648 281.567,266.547 272.517 C 245.904 263.224,244.180 260.873,248.315 247.656 L 249.659 243.359 257.195 242.968 C 270.402 242.282,276.015 234.430,271.077 223.547 C 268.986 218.941,268.929 219.077,274.086 216.473 C 290.837 208.017,303.505 192.497,298.082 187.074 C 294.618 183.609,292.931 184.360,283.180 193.706 C 265.990 210.182,250.655 214.415,233.462 207.430 C 203.871 195.406,180.295 146.462,181.342 99.233 C 181.623 86.599,177.813 82.249,171.343 87.814 M258.652 226.307 C 259.479 228.238,260.156 229.964,260.156 230.143 C 260.156 230.322,255.059 230.469,248.828 230.469 C 242.598 230.469,237.500 230.356,237.500 230.217 C 237.500 230.079,238.052 228.346,238.727 226.366 L 239.953 222.766 248.550 222.781 L 257.147 222.797 258.652 226.307 M202.291 243.021 C 203.696 244.768,204.721 246.271,204.571 246.360 C 203.177 247.190,183.380 253.171,183.066 252.857 C 182.838 252.630,182.890 250.714,183.181 248.599 L 183.710 244.754 187.753 243.811 C 189.977 243.293,193.379 242.225,195.313 241.437 C 197.246 240.650,199.033 239.969,199.283 239.925 C 199.534 239.880,200.887 241.273,202.291 243.021 " stroke="none" fill="#000000" fill-rule="evenodd"></path></g></svg>